<?xml version="1.0" encoding="UTF-8" standalone="no"?>
<svg
   width="100"
   height="150"
   version="1.1"
   id="svg4"
   sodipodi:docname="card-back-img.svg"
   inkscape:version="1.4 (86a8ad7, 2024-10-11)"
   xmlns:inkscape="http://www.inkscape.org/namespaces/inkscape"
   xmlns:sodipodi="http://sodipodi.sourceforge.net/DTD/sodipodi-0.dtd"
   xmlns="http://www.w3.org/2000/svg"
   xmlns:svg="http://www.w3.org/2000/svg">
  <defs
     id="defs4" />
  <sodipodi:namedview
     id="namedview4"
     pagecolor="#ffffff"
     bordercolor="#000000"
     borderopacity="0.25"
     inkscape:showpageshadow="2"
     inkscape:pageopacity="0.0"
     inkscape:pagecheckerboard="0"
     inkscape:deskcolor="#d1d1d1"
     inkscape:zoom="7.94"
     inkscape:cx="49.937028"
     inkscape:cy="75"
     inkscape:window-width="2560"
     inkscape:window-height="1494"
     inkscape:window-x="-11"
     inkscape:window-y="-11"
     inkscape:window-maximized="1"
     inkscape:current-layer="svg4" />
  <rect
     width="98.032791"
     height="148.03279"
     rx="9.8032789"
     fill="#ffffff"
     stroke="#000000"
     stroke-width="1.96721"
     id="rect1"
     x="0.98360503"
     y="0.98360503" />
  <g
     inkscape:groupmode="layer"
     inkscape:label="Image"
     id="g1">
    <path
       style="fill:#000000;stroke-width:0.777605"
       d="M 7.756138,74.196307 8.012276,6.8926268 50.026677,6.6106455 C 89.58133,6.3451738 92.0398,6.4401048 92.019148,8.2321411 c -0.01209,1.0469134 0.09119,31.3336209 0.229457,67.3037999 l 0.251394,65.400329 -42.5,0.28186 L 7.5,141.5 Z M 90.805754,73.735375 90.549447,8.1559818 86.07454,8.224745 C 83.61334,8.262567 65.154348,8.3431477 45.054558,8.4038158 L 8.509487,8.5141204 8.524717,17.432345 c 0.0084,4.905023 0.349824,8.346362 0.758774,7.647418 0.408951,-0.698945 0.669202,-4.443366 0.5783363,-8.320936 L 9.69662,9.7086997 29.452297,9.691034 c 13.50739,-0.012073 19.973058,0.364681 20.442982,1.191229 0.42686,0.750803 0.235753,0.905526 -0.504328,0.408311 -0.655398,-0.440322 -1.929166,-0.150647 -2.830595,0.643723 -1.264462,1.114286 -1.462695,1.125651 -0.867542,0.04974 0.91952,-1.662306 -4.21071,-0.663484 -5.858975,1.140705 -0.666288,0.729316 -0.255662,0.89488 1.244401,0.501745 1.231353,-0.322712 2.011676,-0.187213 1.734046,0.301108 -0.277631,0.488321 0.05737,1.168137 0.744444,1.510705 0.687075,0.342565 0.242372,0.351332 -0.988227,0.01949 -1.604733,-0.432743 -2.237453,-0.12423 -2.237453,1.090975 0,0.931888 -0.473902,1.694342 -1.05311,1.694342 -0.579213,0 -0.808645,0.429993 -0.509852,0.955541 0.298795,0.525547 -0.803126,1.561785 -2.448709,2.302748 -1.645582,0.740964 -3.186428,1.68924 -3.4241,2.107283 -0.751378,1.321599 5.875608,0.893592 7.435771,-0.480241 2.811173,-2.475438 3.981729,-2.91159 3.401298,-1.26733 -0.703398,1.99261 1.274671,3.38657 2.857411,2.013642 0.659708,-0.572256 2.094451,-0.675248 3.188316,-0.22887 1.093866,0.446377 2.82596,0.337727 3.849094,-0.241444 1.301625,-0.736819 1.659389,-0.699756 1.191381,0.123423 -0.416418,0.732437 -0.08855,0.934388 0.868709,0.535077 0.845665,-0.352764 1.280562,-1.093441 0.966439,-1.645951 -0.646776,-1.137614 4.454362,-0.37141 5.428079,0.815309 0.343094,0.418148 -0.182544,0.445109 -1.168083,0.05991 -0.985539,-0.385192 -1.54585,-0.267591 -1.245135,0.261335 0.300715,0.528927 2.152349,0.912212 4.11474,0.851742 3.17285,-0.09776 3.365805,-0.258889 1.742346,-1.454904 -4.023338,-2.964025 -6.280501,-5.312703 -6.290265,-6.545305 -0.0057,-0.713641 -0.793388,-1.831379 -1.750521,-2.483859 -1.502064,-1.023961 -1.434013,-1.095319 0.497212,-0.521368 1.304918,0.387816 2.237454,0.184057 2.237454,-0.488881 0,-0.634614 -0.44749,-1.153844 -0.994424,-1.153844 -0.546933,0 -0.994423,-0.516934 -0.994423,-1.148743 0,-0.7734608 5.197883,-1.0677357 15.910779,-0.9007773 8.750929,0.1363808 15.910779,0.6820243 15.910779,1.2125403 0,0.530517 -0.559364,0.599264 -1.243031,0.152773 -0.979468,-0.639677 -0.988612,-0.469788 -0.04311,0.801256 0.730543,0.982067 1.189833,5.186126 1.174125,10.747227 -0.02297,8.132278 -0.180004,8.906758 -1.431681,7.060867 -0.91141,-1.344091 -1.074491,-2.507366 -0.463674,-3.30743 0.5185,-0.679144 0.604075,-2.608516 0.190295,-4.290394 -0.696318,-2.830269 -0.872277,-2.925425 -2.379665,-1.286809 -2.719856,2.956645 -4.288638,1.983886 -1.694549,-1.050744 l 2.410799,-2.820198 -2.250123,-1.644784 c -2.117511,-1.54784 -2.146815,-1.73002 -0.497216,-3.090901 2.401132,-1.980873 -3.394507,-2.120497 -7.319741,-0.176341 -2.148297,1.064047 -2.786653,1.064047 -3.112929,0 -0.596522,-1.945359 -2.233554,-1.640955 -2.233554,0.415325 0,1.388609 -0.292689,1.489801 -1.405434,0.485907 -2.189911,-1.975691 -6.759103,-2.534986 -7.689124,-0.941193 -1.336686,2.290702 -0.967766,3.168202 0.890561,2.11826 0.957133,-0.540773 2.635223,-0.592078 3.729089,-0.114012 1.928009,0.842624 1.92366,0.871537 -0.142214,0.94519 -3.372499,0.120238 -3.674242,2.92588 -0.314676,2.92588 1.552328,0 2.73766,-0.454997 2.634076,-1.011105 -0.103586,-0.556108 0.482897,-1.146784 1.303295,-1.312615 0.820401,-0.165832 2.771731,-0.661525 4.33629,-1.101542 2.65422,-0.746473 2.795735,-0.627349 2.113922,1.77941 -0.992095,3.502018 -1.314574,3.746853 -2.737695,2.078537 -0.973674,-1.141431 -0.970258,-1.280531 0.01656,-0.674884 0.683677,0.419586 1.243039,0.247725 1.243039,-0.381911 0,-0.629636 -0.894981,-1.144794 -1.988847,-1.144794 -1.093866,0 -1.988847,0.518428 -1.988847,1.152063 0,2.315445 2.101959,5.333919 3.714355,5.333919 1.192008,0 1.352892,0.328989 0.574611,1.175024 -1.109259,1.205831 -5.609759,-1.888421 -4.805125,-3.303693 0.207011,-0.364111 -1.152108,-0.706295 -3.020265,-0.760411 -1.868155,-0.05412 -3.141518,0.350351 -2.829695,0.898816 0.311823,0.548466 1.491966,0.678063 2.62254,0.287994 1.636723,-0.564701 1.925939,-0.341946 1.419338,1.093169 -0.409536,1.160146 -0.246351,1.540438 0.457964,1.067252 1.145036,-0.769281 3.038844,1.596959 2.307562,2.88321 -0.232049,0.408151 -4.341811,0.512081 -9.132806,0.230953 -4.790992,-0.281127 -9.382131,-0.438744 -10.202529,-0.350259 -0.820401,0.08848 -5.900534,0.155702 -11.289184,0.149377 -9.34961,-0.01098 -9.773479,0.08855 -9.271131,2.176768 0.486629,2.022875 0.361341,1.998031 -1.657658,-0.328719 -1.305733,-1.504763 -1.787966,-2.819398 -1.199116,-3.268959 0.541726,-0.413585 0.65484,-1.110827 0.251363,-1.549429 -0.403475,-0.438603 -1.228153,-0.25984 -1.832618,0.397247 -1.175118,1.277422 -3.839945,0.666676 -3.839945,-0.880068 0,-0.512279 0.636916,-0.66573 1.415371,-0.341002 0.803021,0.334975 1.878595,-0.350484 2.486059,-1.584357 1.561699,-3.172104 1.335013,-3.99717 -1.154227,-4.201003 -1.552984,-0.127166 -1.821239,0.08901 -0.888257,0.715832 0.99289,0.667061 1.036587,1.099621 0.169908,1.68189 -1.655985,1.112557 -2.360329,-0.0158 -2.360329,-3.781236 0,-4.477402 -8.149236,-6.4310409 -9.415275,-2.257149 -0.319222,1.052433 -0.04502,1.220096 0.916536,0.560411 0.754623,-0.517718 2.537101,-1.011374 3.961063,-1.09701 2.374915,-0.142827 2.571453,0.168418 2.376561,3.763578 -0.287533,5.30405 -0.361428,5.392529 -1.930306,2.31135 -0.753032,-1.478909 -1.130663,-3.108401 -0.83918,-3.621088 0.291483,-0.512691 -0.394092,-0.394566 -1.5235,0.262497 -3.182446,1.851471 -3.372698,3.005087 -0.851177,5.161191 2.667895,2.281265 2.428257,4.669818 -0.468514,4.669818 -1.557186,0 -1.83209,-0.482592 -1.304414,-2.28989 0.482376,-1.652144 0.294919,-2.154494 -0.673078,-1.803738 -0.763819,0.276772 -1.362686,2.082931 -1.390485,4.193651 -0.05536,4.203649 -1.147519,6.719635 -2.5173966,5.799297 -1.536593,-1.032342 -1.041456,0.460842 0.8259486,2.490821 0.963414,1.047287 2.561812,1.734556 3.551996,1.527261 1.699974,-0.355886 1.704189,-0.45332 0.07562,-1.747836 -4.0643247,-3.23064 1.008478,-6.309681 8.241352,-5.002259 2.875583,0.519793 3.347528,0.868869 1.969515,1.456763 -0.996755,0.42524 -2.713171,0.249046 -3.814257,-0.391541 -2.201378,-1.280709 -3.400516,-0.712489 -2.359718,1.118169 0.366026,0.643803 1.082073,0.890683 1.591213,0.548622 0.509142,-0.342062 0.925713,-0.137004 0.925713,0.455683 0,0.592686 -0.894982,1.004324 -1.988849,0.914753 -1.093866,-0.08957 -1.988848,-0.545789 -1.988848,-1.013814 0,-0.468026 -0.44749,-0.850958 -0.994424,-0.850958 -1.804622,0 -1.034081,2.002622 1.04678,2.720557 1.555851,0.536801 1.782544,1.043053 0.953384,2.129111 -0.86728,1.135983 -0.373873,1.402857 2.433701,1.316346 2.692528,-0.08297 3.521524,-0.56703 3.521524,-2.056265 0,-1.071265 0.447491,-1.947753 0.994427,-1.947753 1.636119,0 1.124666,3.865566 -0.74582,5.636886 -2.995888,2.837057 -4.635222,2.830788 -7.458177,-0.02851 -2.259792,-2.288886 -2.734667,-2.447291 -2.734667,-0.912206 0,1.021716 0.671236,2.137669 1.491636,2.479893 1.897692,0.791611 1.943926,2.552912 0.06701,2.552912 -0.783544,0 -1.716157,0.998509 -2.072476,2.218908 -0.499067,1.709315 -0.953583,1.943084 -1.979089,1.017894 -1.039074,-0.93743 -1.4043115,-0.653365 -1.6642066,1.294333 -0.493248,3.696506 0.2763681,8.503298 1.2560776,7.845091 0.469642,-0.315525 1.131792,0.629953 1.471446,2.101059 0.396288,1.716399 1.119323,2.465428 2.018001,2.09055 0.770246,-0.321301 1.400448,-0.102427 1.400448,0.486388 0,1.965192 -3.934095,2.292578 -4.944223,0.411445 -0.64152,-1.194682 -0.9719105,5.902947 -0.9920796,21.312343 -0.02672,20.416263 0.14326,22.947013 1.4613966,21.757823 1.972469,-1.77952 1.919094,-0.6191 -0.07103,1.54427 -1.4206057,1.54429 -1.4206057,1.69872 0,1.69872 0.859466,0 1.597994,-0.60807 1.641173,-1.35126 0.06281,-1.08099 0.178821,-1.08099 0.58008,0 0.275865,0.74319 1.471136,1.37677 2.656157,1.40796 l 2.154586,0.0567 -2.237453,1.69665 c -1.2306,0.93316 -2.237453,2.45799 -2.237453,3.38853 0,1.23393 0.780145,0.8794 2.882109,-1.30973 2.554398,-2.66033 3.148019,-2.8493 5.220724,-1.66192 3.519414,2.01616 5.59312,7.50204 2.835828,7.50204 -0.546934,0 -0.994424,-0.89182 -0.994424,-1.98182 0,-1.48138 -0.753352,-1.98183 -2.983271,-1.98183 -1.857414,0 -2.983271,0.55675 -2.983271,1.47525 0,0.8114 -0.671236,1.75527 -1.491635,2.09749 -0.8204,0.34222 -1.491636,1.06784 -1.491636,1.61248 0,0.54465 1.042574,0.24768 2.316834,-0.65994 2.197013,-1.56487 3.649708,-1.28642 3.649708,0.69953 0,0.49546 -0.503428,0.77922 -1.118727,0.63059 -0.6153,-0.14864 -1.325012,0.34167 -1.577137,1.08957 -0.348976,1.03522 0.153417,1.10698 2.104515,0.30058 1.409609,-0.58258 3.349919,-0.72323 4.311802,-0.31254 2.707154,1.15587 -5.515186,2.34522 -8.905651,1.28822 -1.702416,-0.53078 -2.582069,-0.47725 -2.233479,0.13589 0.316298,0.55634 0.101184,1.01153 -0.478024,1.01153 -0.579213,0 -1.053112,0.54165 -1.053112,1.20368 0,0.71627 1.180374,1.01536 2.91495,0.73862 3.514672,-0.56076 4.820978,2.4165 1.923368,4.38364 -2.489893,1.69034 -2.369968,4.48403 0.192489,4.48403 1.126141,0 1.790079,-0.45285 1.475413,-1.00632 -0.780092,-1.37208 1.372871,-2.70304 4.693876,-2.90172 3.129317,-0.18721 4.646384,1.52278 2.600629,2.93135 -0.753735,0.51897 -0.922938,0.94359 -0.376006,0.94359 3.81987,0 3.951121,-6.01046 0.147238,-6.74244 -1.878513,-0.36151 -1.929326,-0.51184 -0.4214,-1.24674 1.898882,-0.92546 5.131958,1.74191 3.955898,3.2637 -0.384156,0.4971 0.08464,0.25221 1.041777,-0.54416 1.731428,-1.44065 2.461915,-2.8767 0.944852,-1.85747 -0.437464,0.2939 -1.336237,-0.40705 -1.997273,-1.55769 -0.973822,-1.69508 -0.937429,-2.09207 0.191784,-2.09207 1.360688,0 2.600878,-2.20709 2.600878,-4.6286 0,-0.84194 -0.362157,-0.81511 -1.193309,0.0883 -1.9012,2.06671 -2.919008,1.50218 -1.559183,-0.8648 0.989447,-1.7223 0.99116,-2.59873 0.0084,-4.30934 -1.354896,-2.35838 -1.805675,-30.309545 -0.487813,-30.247341 1.448122,0.06835 3.851121,7.235775 3.111895,9.281842 -3.914404,10.834519 2.825935,23.847089 13.981045,26.991099 l 4.535777,1.27839 -7.201169,0.39443 c -5.124575,0.28069 -7.337971,0.006 -7.675573,-0.95683 -0.260923,-0.74318 -0.962351,-1.35124 -1.558728,-1.35124 -0.596378,0 -0.831377,0.4449 -0.522227,0.98867 0.309155,0.54377 -5.4e-5,1.20685 -0.687128,1.4735 -4.007861,1.55549 2.631295,2.21238 20.645518,2.04272 20.180827,-0.19003 20.378639,-0.16962 19.146255,1.97554 -1.340729,2.33375 -2.325759,2.71729 -3.169091,1.23396 -0.851732,-1.49811 -8.410419,-1.07445 -9.643373,0.5405 -1.238631,1.62239 -3.317963,2.05427 -2.437918,0.50636 0.923762,-1.6248 -2.570468,-2.40346 -4.230225,-0.94267 -0.856066,0.75345 -1.289778,0.88344 -0.963805,0.28889 0.325972,-0.59454 -0.48015,-1.15093 -1.791381,-1.23642 -1.31123,-0.0854 -2.19427,0.17835 -1.962314,0.58634 0.231958,0.40798 -0.548472,0.82123 -1.734285,0.91834 -1.758084,0.14396 -1.883027,-0.0294 -0.676926,-0.93889 1.304989,-0.98415 1.303515,-1.06075 -0.01255,-0.65076 -0.8204,0.25559 -1.349834,1.31434 -1.176519,2.35277 0.318938,1.91101 -0.615808,1.68184 -3.665839,-0.89877 -0.749032,-0.63374 -2.8762,-1.20943 -4.727039,-1.2793 l -3.365165,-0.12702 3.519979,2.30934 c 1.935989,1.27014 3.205467,2.65123 2.821062,3.06911 -0.384406,0.41786 0.03284,0.75976 0.927245,0.75976 1.036926,0 1.418757,0.58755 1.053768,1.6215 -0.672882,1.90615 0.04553,2.0404 2.689037,0.50245 1.057909,-0.61546 1.923471,-2.0748 1.923471,-3.24298 0,-1.16819 0.447491,-2.12396 0.994424,-2.12396 0.546933,0 1.001274,0.60806 1.009652,1.35125 0.01173,1.04071 0.190519,1.05143 0.777966,0.0468 0.90043,-1.54007 6.358031,-1.31795 6.84762,0.2787 0.418287,1.36408 -3.92752,1.52994 -4.772744,0.18215 -0.336824,-0.53712 -0.836177,0.29589 -1.109666,1.85112 -0.640822,3.64409 0.784064,4.61031 2.289484,1.55252 1.039485,-2.1114 1.263508,-2.17261 2.088154,-0.57078 0.508064,0.98689 1.375413,1.79434 1.927448,1.79434 0.552034,0 0.730303,-0.48086 0.396151,-1.0686 -0.363266,-0.63896 0.09272,-0.77651 1.134062,-0.34212 1.231541,0.51373 1.359333,0.86502 0.436339,1.19948 -1.06176,0.38473 -1.05238,0.66925 0.05028,1.52508 1.037614,0.80534 0.947387,0.90939 -0.384689,0.44357 -0.957134,-0.3347 -1.740243,-0.13738 -1.740243,0.43852 0,0.57589 -0.495367,1.04706 -1.100815,1.04706 -0.605448,0 -0.848738,-0.71408 -0.540642,-1.58688 0.308096,-0.87277 0.02035,-1.92366 -0.639426,-2.33528 -0.65978,-0.41164 -0.863005,-0.34509 -0.451612,0.14789 0.411394,0.49299 0.0085,1.78455 -0.89523,2.87014 -1.570286,1.88622 -1.454915,1.95411 2.599419,1.52961 3.767994,-0.39455 8.316109,-2.78747 5.297985,-2.78747 -0.610628,0 -0.868774,-0.96205 -0.580116,-2.16198 0.286056,-1.18912 0.941809,-2.16202 1.457231,-2.16202 0.51542,0 0.706139,-0.40629 0.423818,-0.90286 -0.849308,-1.49384 6.481234,-4.80543 7.701346,-3.47909 1.432308,1.55699 2.223237,1.4363 4.123359,-0.62924 1.213978,-1.31966 1.913081,-1.45676 2.755974,-0.5405 0.842893,0.91628 0.692422,1.2277 -0.593183,1.2277 -1.693033,0 -3.835083,4.08671 -2.974664,5.67524 0.241526,0.4459 1.195838,0.8033 2.120694,0.79419 1.423202,-0.0141 1.456805,-0.17106 0.218716,-1.02222 -2.061288,-1.41707 -0.522161,-2.65579 3.488005,-2.80716 2.50432,-0.0945 3.566484,0.39993 3.992362,1.85858 0.567575,1.94395 2.499421,2.63807 3.70244,1.33032 0.887167,-0.9644 -1.529933,-4.74795 -3.033196,-4.74795 -0.940588,0 -1.024382,-0.53429 -0.311028,-1.98322 0.734436,-1.49178 1.79041,-1.86243 4.261288,-1.49576 2.529651,0.37539 3.025553,0.18907 2.1569,-0.81044 -1.194711,-1.37463 -0.690241,-5.43955 0.67507,-5.43955 0.443707,0 0.832682,4.81912 0.864394,10.70917 l 0.05765,10.70915 -40.421385,0.096 c -22.231759,0.0528 -40.647136,0.34137 -40.9230601,0.6413 -0.2759229,0.29995 18.1472311,0.54537 40.9403451,0.54537 H 91.062063 Z M 38.342199,125.2618 c -0.896266,-0.62964 -1.018919,-1.05449 -0.307294,-1.06444 0.651387,-0.009 1.460906,0.46989 1.798929,1.06444 0.763025,1.3421 0.418774,1.3421 -1.491635,0 z m 21.38011,0 c 0.338023,-0.59455 1.371287,-1.07354 2.296141,-1.06444 1.449148,0.0143 1.475396,0.16138 0.189918,1.06444 -1.947452,1.36812 -3.26388,1.36812 -2.486059,0 z m 15.910609,-6.40744 c 1.123974,-1.22273 1.934551,-1.28727 3.905619,-0.31102 1.827565,0.90521 2.669333,0.91174 3.173655,0.0247 0.416979,-0.73345 0.235775,-0.90453 -0.461707,-0.43594 -0.631431,0.42421 -1.148067,0.22745 -1.148067,-0.43728 0,-0.66471 -0.44749,-0.90793 -0.994423,-0.54049 -0.546934,0.36746 -0.994425,0.15294 -0.994425,-0.4767 0,-1.46287 3.658078,-1.50051 4.484936,-0.0461 0.343532,0.60425 1.088954,0.78668 1.656484,0.40537 0.665307,-0.44698 0.552584,-1.02339 -0.317316,-1.62258 -1.05102,-0.72392 -0.964594,-0.93297 0.391047,-0.94586 3.231987,-0.0308 2.257846,5.36566 -0.994428,5.50874 -10.490999,0.46157 -10.193099,0.50002 -8.701375,-1.12277 z m -22.374364,-1.09059 c 12.373297,-2.71404 19.215342,-15.15372 15.442392,-28.076152 -0.379693,-1.300447 -0.24888,-2.949176 0.290698,-3.66383 0.539575,-0.714655 1.664104,-3.731616 2.498953,-6.704357 1.513086,-5.387828 1.518125,-5.351462 1.587168,11.454638 0.05625,13.691491 -0.242749,17.539511 -1.59116,20.477781 -1.186764,2.58603 -1.3286,3.7384 -0.497211,4.03965 0.639766,0.23183 1.163212,0.92697 1.163212,1.54477 0,0.7538 -0.426112,0.73885 -1.295423,-0.0455 -0.941946,-0.84981 -2.058328,-0.73845 -4.091364,0.40813 -1.766887,0.99647 -5.407613,1.53108 -9.891846,1.45252 -5.58686,-0.0978 -6.35573,-0.28666 -3.615419,-0.88774 z m -10.867956,-3.04336 c -4.309849,-2.38898 -8.779808,-8.41896 -9.617979,-12.97467 -0.626962,-3.407728 -0.548835,-3.507869 2.710611,-3.474485 3.166448,0.0324 3.247055,0.124103 1.425874,1.621494 -1.061668,0.872921 -1.509158,1.571651 -0.994423,1.552741 0.514735,-0.0189 1.773984,-0.7243 2.798331,-1.567562 1.76545,-1.453323 1.713659,-1.575806 -0.994424,-2.351767 -1.57128,-0.450225 -3.416237,-0.696398 -4.099903,-0.547049 -1.584616,0.346169 -1.562752,-3.960167 0.03524,-6.939725 3.169092,-5.908991 9.660395,-12.048257 9.660395,-9.136494 0,1.745912 3.971546,1.313271 4.612508,-0.502466 1.367956,-3.875185 13.767401,0.126024 13.778911,4.446354 0.0029,1.118722 0.622074,2.035298 1.375763,2.036835 0.753689,0.0015 2.085172,1.173111 2.958851,2.603498 1.563998,2.560573 1.552713,2.579878 -0.731286,1.251102 -1.845433,-1.073629 -2.552144,-1.075543 -3.456062,-0.0096 -0.881849,1.040146 -0.72182,1.180845 0.71469,0.628386 1.335298,-0.51354 1.702324,-0.29079 1.317431,0.799547 -0.369319,1.046212 0.0262,1.352285 1.28505,0.994429 3.97828,-1.130914 3.674951,7.921742 -0.501061,14.953922 -2.267087,3.81761 -9.265628,8.50864 -12.694087,8.50864 -1.988813,0 -1.325265,-6.26518 0.867805,-8.19374 1.24617,-1.09587 1.27043,-2.80986 0.235933,-16.669177 -0.06657,-0.891829 -0.521654,-1.907416 -1.0113,-2.256874 -0.489649,-0.349455 -0.964543,-2.660085 -1.055322,-5.134735 -0.213267,-5.813691 -1.361784,-5.765539 -2.262872,0.09487 -0.388521,2.526831 -1.109347,4.87306 -1.601834,5.213841 -1.853765,1.282748 -1.90156,17.460245 -0.0564,19.086925 1.483916,1.30821 1.401148,1.33779 -0.671316,0.23995 -1.868184,-0.98964 -2.542744,-0.94547 -3.216651,0.2106 -1.933276,3.31654 -0.782335,5.08882 2.042846,3.1457 0.983245,-0.67628 1.833415,-0.41606 2.703041,0.82731 2.747667,3.92851 0.08147,4.66813 -5.558368,1.54193 z M 57.23625,111.8817 c 0,-2.64255 -2.852354,-4.46353 -3.613621,-2.307 -0.382734,1.08421 -0.07834,2.24851 0.73405,2.80769 1.983453,1.36524 2.879571,1.20943 2.879571,-0.50069 z m 1.988847,-13.565558 c 0,-0.550954 0.783108,-1.232656 1.740241,-1.514902 0.957133,-0.282237 0.285897,-0.45766 -1.491635,-0.389822 -3.16508,0.120796 -3.896253,0.742914 -2.568928,2.185794 0.963173,1.047022 2.320322,0.88263 2.320322,-0.28107 z M 43.562924,96.439961 c -0.683669,-0.299884 -1.802395,-0.299884 -2.486061,0 -0.683666,0.299883 -0.124303,0.545236 1.243029,0.545236 1.367334,0 1.926696,-0.245353 1.243032,-0.545236 z M 39.431718,90.59629 c 1.588496,-1.22958 2.888174,-2.707874 2.888174,-3.285101 0,-0.577224 -0.979359,-0.05765 -2.176357,1.15461 -1.196995,1.212254 -2.763213,2.204098 -3.480483,2.204098 -0.717269,0 -1.304125,0.486453 -1.304125,1.081003 0,1.583202 0.845455,1.34352 4.072791,-1.15461 z M 60.21952,85.302948 c 0,-1.322043 -3.95002,-3.671443 -4.736087,-2.816939 -0.323431,0.351587 0.274259,1.348426 1.328197,2.215197 2.249228,1.849786 3.40789,2.054376 3.40789,0.601742 z m 14.384522,28.900102 c -0.827947,-2.34543 0.0149,-3.7291 3.446637,-5.65821 2.627421,-1.47698 2.971012,-1.39068 5.941536,1.49229 3.11027,3.0186 3.122352,3.06859 0.894498,3.70191 -1.2421,0.35308 -2.713569,0.10011 -3.269933,-0.5622 -0.698969,-0.83205 -0.659645,-0.99006 0.127258,-0.5113 0.626353,0.38109 1.378481,0.0141 1.671385,-0.81578 0.548191,-1.55291 -0.932638,-1.72087 -2.969084,-0.33676 -0.63431,0.43112 -1.938317,0.45638 -2.897794,0.056 -1.023142,-0.42679 -1.498582,-0.29516 -1.149778,0.31835 0.3271,0.57535 0.200836,1.73889 -0.280587,2.58567 -0.734043,1.2911 -0.978416,1.2475 -1.514138,-0.27011 z m 14.015139,-0.29172 c -0.49937,-1.18909 -1.388072,-2.51938 -1.974897,-2.95618 -0.643066,-0.47867 -0.375571,-0.80077 0.67328,-0.81075 0.957137,-0.009 1.740246,-0.47507 1.740246,-1.03548 0,-0.56042 -0.866125,-0.83761 -1.924725,-0.61599 -1.058598,0.22161 -2.492364,-0.34059 -3.186162,-1.24934 -1.090281,-1.42807 -0.862858,-1.60118 1.67612,-1.27576 2.63018,0.33713 2.933542,0.0667 2.899241,-2.58382 -0.0211,-1.62818 0.337617,-2.55167 0.7971,-2.05219 0.459476,0.49947 0.694186,4.02066 0.521572,7.82483 -0.236573,5.21383 -0.537368,6.38441 -1.221775,4.75468 z M 20.237699,105.9391 c -5.729265,-2.15071 -8.269834,-4.45922 -4.907443,-4.45922 1.244388,0 1.972278,0.48218 1.631832,1.08099 -0.338024,0.59455 -0.02881,1.15509 0.68713,1.24564 0.715945,0.0906 1.749208,0.27768 2.296141,0.41582 0.546934,0.13813 1.953401,0.30726 3.125485,0.37584 1.172083,0.0686 2.388637,0.85436 2.703456,1.74619 0.669588,1.89684 0.578129,1.89013 -5.536601,-0.40526 z m 54.898176,-0.018 c 0,-1.02891 2.803539,-1.74108 5.220725,-1.3262 1.107271,0.19007 0.903373,-1.80053 -0.264827,-2.58538 -0.555854,-0.37344 -0.705905,-1.21499 -0.333448,-1.8701 0.415817,-0.731377 0.983076,-0.292261 1.469689,1.13769 2.199872,6.46456 4.318725,-1.04396 2.306897,-8.174908 -0.778582,-2.759674 -4.918551,-1.559732 -4.918551,1.42561 0,2.230962 0.407259,2.692218 2.071714,2.346339 1.162362,-0.241554 2.071717,0.135192 2.071717,0.85832 0,1.453815 -3.369662,0.854077 -5.515793,-0.981701 -1.131409,-0.967795 -1.248483,-0.560799 -0.666805,2.318124 0.433894,2.147496 0.316499,3.492036 -0.304892,3.492036 -0.5991,0 -0.937333,-2.860448 -0.830849,-7.02649 0.09877,-3.864559 0.565804,-7.026473 1.037829,-7.026473 0.472024,0 0.576361,0.798474 0.231859,1.774395 -0.52846,1.497043 -0.385047,1.556674 0.91748,0.381567 1.261071,-1.137711 2.039348,-1.130349 4.249068,0.04021 1.487863,0.788178 3.057153,1.467758 3.487304,1.510177 1.015653,0.100189 2.663643,2.948487 2.683167,4.637453 0.0084,0.724516 -0.562718,1.076229 -1.26909,0.781572 -0.862494,-0.359775 -1.270753,0.439637 -1.243033,2.433989 0.02952,2.12481 -0.665999,3.3405 -2.444767,4.27301 -4.091403,2.1449 -7.955394,2.9127 -7.955394,1.58076 z M 86.417689,94.406823 c -0.32387,-0.917469 -0.802127,-1.436284 -1.062789,-1.152929 -0.26067,0.283365 -0.178974,1.034023 0.181539,1.668128 0.980548,1.724683 1.553666,1.389632 0.88125,-0.515199 z m 0.154056,10.316087 c -0.338018,-0.59455 -0.140682,-1.081 0.438527,-1.081 0.57921,0 1.053111,0.48645 1.053111,1.081 0,0.59454 -0.197337,1.081 -0.438519,1.081 -0.241191,0 -0.715092,-0.48646 -1.053119,-1.081 z m -63.561102,-4.59428 c 1.127501,-3.844893 1.014186,-5.697363 -0.330619,-5.404992 -0.683666,0.148645 -1.243029,-0.459424 -1.243029,-1.351244 0,-1.008932 -0.939177,-1.621494 -2.48606,-1.621494 -2.560516,0 -2.824602,0.595562 -2.516484,5.675236 0.123986,2.044044 -0.299339,2.972744 -1.355055,2.972744 -0.956223,0 -1.319462,-0.611633 -0.962978,-1.621501 0.367641,-1.041467 -0.02023,-1.621494 -1.084321,-1.621494 -0.911193,0 -1.375639,-0.49438 -1.032103,-1.09863 0.343537,-0.604241 1.117229,-0.767678 1.719314,-0.363169 0.704435,0.473261 0.868324,0.09421 0.459709,-1.063357 -0.349246,-0.989357 -0.175138,-1.798836 0.386908,-1.798836 0.562047,0 0.700004,-0.608059 0.306573,-1.351244 -0.393433,-0.743185 -0.37383,-1.017468 0.04357,-0.609515 0.417391,0.40795 1.886038,0.275891 3.263661,-0.293484 1.777526,-0.73465 2.958159,-0.636145 4.066333,0.339268 1.268569,1.116585 1.416394,1.112062 0.787855,-0.0242 -0.425539,-0.769225 -0.265964,-2.063649 0.354613,-2.876496 0.788934,-1.033371 0.809807,-1.691897 0.06939,-2.189339 -0.582417,-0.391247 -0.771852,-1.216342 -0.420973,-1.833505 0.410746,-0.722458 -0.203287,-0.868426 -1.72402,-0.409832 -2.163111,0.652311 -2.21546,0.583766 -0.621743,-0.814107 0.957134,-0.839516 1.740242,-2.021262 1.740242,-2.626105 0,-0.60484 0.669826,-1.704012 1.4885,-2.442602 1.308642,-1.18063 1.476325,0.240168 1.38774,11.758605 -0.08251,10.727563 -0.364355,13.101503 -1.555512,13.101503 -1.057014,0 -1.259746,-0.66499 -0.741504,-2.43225 z m -5.551342,-2.306221 c 0,-0.227977 1.105183,-0.644153 2.455963,-0.924847 1.350782,-0.280703 2.219355,-0.09421 1.930161,0.414479 -0.509225,0.895667 -4.386124,1.34678 -4.386124,0.510368 z m 0.497211,-3.909523 c -0.338023,-0.59454 -0.140689,-1.080993 0.438524,-1.080993 0.57921,0 1.05311,0.486453 1.05311,1.080993 0,0.594559 -0.197334,1.081003 -0.438524,1.081003 -0.241188,0 -0.715088,-0.486444 -1.05311,-1.081003 z m 62.151483,0 c 0,-0.59454 0.671236,-1.080993 1.491637,-1.080993 0.8204,0 1.491637,0.486453 1.491637,1.080993 0,0.594559 -0.671237,1.081003 -1.491637,1.081003 -0.820401,0 -1.491637,-0.486444 -1.491637,-1.081003 z m 8.110778,-1.682447 c -0.637048,-1.519898 -1.556969,-2.495585 -2.044264,-2.168205 -0.487295,0.327388 -1.142585,-0.131634 -1.456195,-1.020035 -0.313616,-0.888409 -0.188952,-1.615292 0.277028,-1.615292 0.465978,0 1.105421,-1.073264 1.420983,-2.385034 0.315563,-1.31177 0.851501,-2.083106 1.190974,-1.714079 0.339474,0.369026 0.149224,1.621556 -0.42278,2.783402 -1.255034,2.549214 -0.318972,3.925945 1.533184,2.254969 1.074649,-0.969525 1.334529,-0.441427 1.334529,2.711875 0,4.646343 -0.292061,4.829915 -1.833459,1.152399 z M 10.498334,90.684564 c 0,-1.721533 0.495267,-3.462801 1.100591,-3.869481 0.778323,-0.522908 0.731099,-0.987659 -0.161274,-1.587191 -0.990927,-0.665744 -0.930308,-1.208196 0.282322,-2.526395 1.395968,-1.517501 1.590551,-1.414979 2.027206,1.068095 0.30361,1.726503 -0.02324,2.957905 -0.87999,3.315291 -0.749655,0.312714 -1.085898,1.055984 -0.747205,1.651705 0.380277,0.668867 0.927917,0.534153 1.431854,-0.352212 0.448828,-0.789443 1.091248,-1.136199 1.427601,-0.77056 0.336352,0.365631 -0.534297,1.910389 -1.934778,3.432798 l -2.546327,2.768002 z m 6.521937,-6.13848 c 0.442598,-2.704489 0.182632,-3.527556 -1.240772,-3.928343 -1.69547,-0.477393 -1.697178,-0.514345 -0.02923,-0.632414 2.328296,-0.164817 3.243716,2.634754 1.834237,5.609525 -1.006851,2.125002 -1.065722,2.015575 -0.564235,-1.048768 z M 75.135875,82.08572 c 0,-5.298603 0.22994,-5.362947 3.125312,-0.874544 1.502827,2.329681 1.693142,3.013434 0.564926,2.029631 -1.462041,-1.274896 -1.70139,-1.245853 -1.70139,0.206452 0,0.929534 -0.44749,1.990702 -0.994423,2.358154 -0.600563,0.403483 -0.994425,-1.069772 -0.994425,-3.719693 z m 6.29656,2.554873 c -0.331088,-0.937924 0.0875,-2.454829 0.930215,-3.370898 1.603687,-1.743308 3.722765,-1.120612 3.696659,1.086274 -0.01,0.846457 -0.312549,0.777166 -0.88324,-0.20229 -1.379168,-2.367003 -3.289372,-0.416466 -2.052507,2.095844 0.721475,1.465443 0.71289,2.096389 -0.02849,2.096389 -0.583341,0 -1.331515,-0.767393 -1.662607,-1.705319 z m 7.87615,-2.07817 c 0.01111,-2.378195 0.214682,-3.223808 0.45254,-1.879142 0.237864,1.344665 0.228832,3.29046 -0.02006,4.323989 -0.248895,1.033526 -0.44351,-0.06666 -0.432471,-2.444847 z m -57.750693,-0.01026 c -1.598745,-3.814343 -0.597008,-5.20985 3.17582,-4.424196 2.231127,0.464611 2.689307,0.3472 1.619639,-0.415041 -1.287089,-0.917175 -1.261045,-1.065204 0.189918,-1.079488 2.859736,-0.02815 2.682702,1.459947 -0.61732,5.188982 l -3.171705,3.584039 z m 4.291206,-1.598906 c 0.348386,-0.612774 -0.05077,-0.794 -0.935735,-0.424844 -1.722757,0.718635 -2.037958,1.493459 -0.607548,1.493459 0.514654,0 1.209132,-0.480878 1.543283,-1.068615 z m 29.20661,2.475812 c -1.194404,-1.596398 -1.131916,-1.720656 0.525192,-1.044349 1.608125,0.656315 1.695887,0.525311 0.605162,-0.903346 -1.074167,-1.406972 -1.01783,-1.563406 0.356557,-0.99009 1.752314,0.730966 2.195622,3.18652 0.750542,4.157381 -0.484962,0.325816 -1.491816,-0.223001 -2.237453,-1.219596 z m 1.130354,-4.768715 c -1.207405,-0.944156 -1.112663,-1.031791 0.497212,-0.459901 1.572228,0.558516 1.734112,0.427509 0.772793,-0.625403 -0.942656,-1.032468 -1.79157,-1.046867 -3.77588,-0.06405 -3.525124,1.745985 -4.343187,1.53146 -1.96903,-0.516348 1.922347,-1.658106 1.897408,-1.692413 -0.745819,-1.026024 -1.504067,0.379194 -2.734665,0.262141 -2.734665,-0.260116 0,-0.522256 2.349325,-1.441104 5.220724,-2.041886 l 5.220724,-1.09233 -4.260814,0.03797 c -2.343448,0.02089 -4.804645,-0.553771 -5.46933,-1.277026 -0.948908,-1.032528 -0.354047,-1.217784 2.76918,-0.862396 2.187731,0.248937 2.970839,0.241527 1.74024,-0.01646 -1.230598,-0.257997 -2.237455,-0.907956 -2.237455,-1.444355 0,-0.536396 0.744646,-0.664644 1.654767,-0.284993 1.056271,0.440617 1.412628,0.26438 0.985284,-0.487275 -0.368215,-0.647653 0.03782,-1.946442 0.902324,-2.886196 1.729693,-1.880278 3.898459,-2.346229 2.921381,-0.627648 -0.338023,0.594548 -0.140688,1.080997 0.438523,1.080997 1.474746,0 1.319683,2.945896 -0.189916,3.608064 -0.742578,0.325723 -0.542397,0.579599 0.497211,0.630582 3.34796,0.164184 2.060135,4.229194 -1.491636,4.708339 l -3.231876,0.435989 3.338268,0.173 c 2.602262,0.134857 3.205189,0.549993 2.734665,1.882907 -0.331981,0.940444 -0.603603,1.913344 -0.603603,2.161991 0,0.810186 -1.45873,0.444711 -2.983272,-0.747438 z m 19.443754,0.210853 c -0.320179,-0.563164 -0.158279,-1.308706 0.359791,-1.65676 0.518059,-0.348055 1.203891,-0.172057 1.52407,0.391108 0.320188,0.563165 0.158277,1.308707 -0.359782,1.656763 -0.518061,0.348055 -1.203899,0.172055 -1.524079,-0.391111 z M 11.937477,77.790263 c 0.309153,-0.543767 -5.5e-5,-1.206843 -0.687129,-1.473501 -0.687074,-0.266659 -1.025481,-0.752783 -0.752014,-1.080275 0.273467,-0.327493 1.553641,0.335585 2.844831,1.473503 2.336883,2.05948 2.337751,2.068941 0.189919,2.068941 -1.186736,0 -1.904759,-0.4449 -1.595607,-0.988668 z m 18.449331,-1.260461 c 0,-0.546623 1.230599,-1.057897 2.734666,-1.136166 2.459737,-0.127996 2.384758,-0.222368 -0.745818,-0.938692 -1.914267,-0.438014 -2.983174,-0.860427 -2.375352,-0.938694 0.626851,-0.08072 0.899455,-1.311892 0.62989,-2.844795 -0.37026,-2.105515 -0.06522,-2.698838 1.380929,-2.68594 1.583343,0.01413 1.636923,0.184896 0.364533,1.161877 -1.111881,0.853739 -0.478955,0.993623 2.486058,0.549447 3.04101,-0.455561 3.509353,-0.343802 1.988848,0.474594 -1.734369,0.933503 -1.638938,1.018579 0.745819,0.664903 1.504065,-0.223065 2.734664,-0.03862 2.734664,0.409865 0,1.291278 -2.35981,1.938552 -5.532359,1.517478 -1.606131,-0.213173 -0.7143,0.220614 1.981852,0.963973 2.69615,0.743357 5.085675,1.950254 5.310052,2.681991 0.314303,1.024993 -0.147877,1.055125 -2.013169,0.131253 -1.693891,-0.838981 -3.512901,-0.871483 -6.05587,-0.108206 -2.145935,0.644105 -3.634743,0.683882 -3.634743,0.09711 z m 58.216629,-2.607538 c 0.162506,-4.035448 1.448795,-4.682221 1.448795,-0.728483 0,1.882736 -0.350393,3.423157 -0.778655,3.423157 -0.428257,0 -0.729821,-1.212604 -0.67014,-2.694674 z m -65.177595,0.596477 c 0,-0.559459 0.447491,-1.317843 0.994425,-1.685293 0.546932,-0.367451 0.994423,0.09029 0.994423,1.0172 0,0.92691 -0.447491,1.685293 -0.994423,1.685293 -0.546934,0 -0.994425,-0.45774 -0.994425,-1.0172 z M 18.424693,72.795423 C 17.73785,71.895779 17.4634,70.847162 17.814805,70.465166 c 0.351405,-0.381999 0.638918,-0.142287 0.638918,0.532694 0,0.67498 0.671236,0.947233 1.491636,0.605009 0.8204,-0.342225 1.491636,-0.11244 1.491636,0.51063 0,1.985216 -1.720016,2.374592 -3.012302,0.681924 z m 60.688877,0.838554 c 0,-0.451532 0.905081,-1.435408 2.011289,-2.186389 1.865538,-1.266474 1.920266,-1.20698 0.755217,0.820966 -1.25146,2.178369 -2.766506,2.926127 -2.766506,1.365423 z M 10.498334,72.325312 c 0,-0.612347 0.433446,-1.113359 0.963214,-1.113359 0.529767,0 0.705637,-0.729674 0.390819,-1.621496 -0.418589,-1.185794 0.124208,-1.621496 2.020057,-1.621496 3.261337,0 3.241945,0.152419 -0.39082,3.072063 -1.640798,1.318706 -2.98327,1.896636 -2.98327,1.284288 z M 71.827315,69.590457 C 71.374939,67.806811 70.338623,64.815817 69.52439,62.943803 68.330093,60.197979 68.259218,58.671153 69.15769,55.044001 73.276899,38.414638 55.674045,24.483667 40.579393,32.427019 32.81558,36.512617 28.350179,48.171802 31.175242,56.981305 c 0.854957,2.666046 0.623175,4.079304 -1.371435,8.362162 l -2.40027,5.153898 V 54.625034 c 0,-10.758724 0.397439,-16.564137 1.233628,-18.019656 0.986316,-1.716837 0.977198,-2.593686 -0.04548,-4.373811 -1.16837,-2.033734 -1.112191,-2.129378 0.648941,-1.104794 1.468492,0.854336 2.48668,0.670277 4.271776,-0.772213 3.433358,-2.7744 29.005507,-2.547448 32.993135,0.292813 2.160227,1.538664 2.959275,1.646831 4.160406,0.563195 0.899772,-0.811757 1.486654,-0.897798 1.486654,-0.217953 0,0.617802 -0.559363,1.338088 -1.243029,1.600637 -0.938236,0.360308 -0.809464,1.378982 0.525163,4.154404 1.508022,3.136006 1.727502,6.061351 1.491637,19.881419 -0.186285,10.915172 -0.545025,15.145842 -1.099057,12.961382 z M 23.381484,69.43993 c -3.492704,-4.573892 -4.456462,-6.226919 -3.121356,-5.353717 1.792864,1.17259 4.36969,-2.647731 2.997882,-4.444562 -0.548797,-0.718827 -0.65862,-1.936327 -0.244054,-2.705556 0.414567,-0.76923 -0.171735,-0.517579 -1.302894,0.559227 -1.28369,1.222007 -2.194382,1.508663 -2.423117,0.762717 -0.201556,-0.657312 -1.347493,-1.275443 -2.546525,-1.373627 -1.199032,-0.09818 -1.97836,-0.397774 -1.731839,-0.665757 0.246521,-0.267982 -0.443915,-1.166517 -1.534302,-1.996743 -2.353118,-1.791679 -2.586798,-3.548904 -0.47194,-3.548904 1.084259,0 1.346868,-0.709076 0.930496,-2.512456 -0.34112,-1.477457 -0.04168,-2.972945 0.726872,-3.630289 1.573236,-1.345578 10.938267,-4.827231 11.459709,-4.260394 0.202648,0.220293 0.01487,7.326255 -0.417243,15.79103 -0.719149,14.086963 -0.91579,15.220132 -2.321689,13.379031 z M 21.436995,53.3755 c 0,-1.981827 -0.53036,-2.702492 -1.988849,-2.702492 -1.093865,0 -1.988845,-0.48645 -1.988845,-1.080996 0,-2.483124 3.959688,-0.994867 4.587479,1.724212 0.455292,1.971953 0.883382,2.390627 1.441194,1.409493 0.436437,-0.767645 0.377252,-2.241234 -0.131519,-3.274643 -1.3504,-2.742919 -1.135126,-4.183052 0.625288,-4.183052 0.852677,0 1.273759,-0.486448 0.935735,-1.080997 -1.265116,-2.22521 -5.658545,-1.270025 -4.972119,1.080997 0.362111,1.24024 0.178698,2.161995 -0.4302,2.161995 -0.58379,0 -1.061436,-0.684133 -1.061436,-1.520295 0,-0.988085 -0.696232,-1.322372 -1.988848,-0.954917 -2.212484,0.628948 -2.630619,2.062497 -0.795537,2.727444 0.656319,0.237821 1.193308,2.224153 1.193308,4.414072 0,3.434124 0.314526,3.981672 2.287174,3.981672 1.776704,0 2.287175,-0.603164 2.287175,-2.702493 z m -3.342882,0 c 0.314817,-0.891822 0.957964,-1.621495 1.429218,-1.621495 0.47125,0 0.599242,0.729673 0.284427,1.621495 -0.314818,0.891824 -0.957965,1.621496 -1.429216,1.621496 -0.471253,0 -0.599246,-0.729672 -0.284429,-1.621496 z m 67.149368,16.428944 c -0.793863,-1.039824 -0.574725,-1.423145 0.881752,-1.542411 1.985739,-0.162604 2.635511,1.272814 1.056406,2.333721 -0.484968,0.325817 -1.357134,-0.03027 -1.938158,-0.79131 z m -39.99839,-0.698519 c -4.673197,-1.541491 -6.902892,-3.35507 -6.902892,-5.614641 0,-1.412425 -0.485465,-2.037106 -1.314396,-1.691323 -1.411824,0.588933 -4.206838,-3.323385 -3.175344,-4.444682 0.341101,-0.370796 0.970971,-0.05717 1.399711,0.696934 0.607041,1.067724 1.072395,0.987502 2.103105,-0.362551 0.727971,-0.953511 0.912215,-1.6536 0.409434,-1.555753 -3.994102,0.777309 -5.610705,-1.459732 -5.175694,-7.162083 0.650303,-8.524497 8.519817,-17.756766 15.135732,-17.756766 1.803542,0 1.109784,5.567259 -1.172093,9.405796 -0.892187,1.500821 -1.140515,3.296892 -0.672573,4.864487 0.408017,1.366845 0.679707,4.917416 0.603756,7.890157 -0.09708,3.800107 0.10939,4.763034 0.695375,3.242991 0.628711,-1.630865 1.034551,-0.435826 1.651995,4.864488 l 0.818529,7.02648 0.981592,-4.864486 c 0.539875,-2.675468 1.411351,-5.176389 1.936612,-5.557602 0.525261,-0.381214 1.064532,-3.371682 1.198377,-6.645486 0.133846,-3.273802 0.542539,-6.4786 0.908207,-7.121773 0.365668,-0.64317 0.15202,-2.211057 -0.474771,-3.484189 -0.864559,-1.756079 -0.859689,-2.126715 0.02017,-1.535588 1.220654,0.820086 4.158294,-2.627212 3.390146,-3.978308 -0.24433,-0.429751 -1.54712,-0.325543 -2.89509,0.231571 -1.918401,0.792874 -2.450856,0.666476 -2.450856,-0.581804 0,-0.877106 -0.536989,-1.59474 -1.193309,-1.59474 -0.873041,0 -0.897612,-0.321438 -0.09155,-1.197676 1.731511,-1.882252 7.436232,0.677933 11.60266,5.207083 7.801227,8.480394 6.654328,21.341817 -2.565093,28.765154 -2.317033,1.86564 -2.917058,1.958949 -4.340277,0.674953 -1.433991,-1.293716 -1.886747,-1.174219 -3.4372,0.907205 -1.885344,2.531001 -2.885969,2.727306 -6.994269,1.372152 z m -1.99077,-5.195905 c -2.422778,-1.844716 -2.867906,-1.944437 -2.985928,-0.668935 -0.07741,0.836603 4.371382,3.430136 4.974775,2.900168 0.240469,-0.211208 -0.654513,-1.215262 -1.988847,-2.231233 z m 21.258343,-6.72899 c 0.446962,-0.448778 0.223218,-1.040089 -0.497213,-1.314024 -0.72043,-0.273934 -2.137158,0.43917 -3.148284,1.584674 -1.796313,2.035047 -1.784929,2.065134 0.497213,1.314024 1.284593,-0.422792 2.70132,-1.135897 3.148284,-1.584674 z m 1.673398,-6.494642 c 0,-0.464506 -2.237452,-0.807864 -4.97212,-0.763018 -2.734663,0.04484 -4.972118,0.396317 -4.972118,0.781046 0,0.384728 2.237455,0.728086 4.972118,0.763017 2.734668,0.03494 4.97212,-0.316539 4.97212,-0.781045 z M 46.888035,38.618049 c 0.669012,-1.176724 -2.030123,-4.159997 -3.763782,-4.159997 -1.214085,0 -0.964439,2.636577 0.388948,4.10779 1.497836,1.628235 2.470251,1.643276 3.374834,0.0522 z m 28.24784,28.325063 c 0,-1.898912 0.639272,-4.147494 1.420606,-4.996849 1.882665,-2.046568 3.140307,-1.989221 1.567062,0.07145 -0.678453,0.888656 -1.003188,2.57334 -0.721633,3.743745 0.281555,1.170402 -0.113118,2.691903 -0.877057,3.381111 -1.13971,1.028218 -1.388978,0.633504 -1.388978,-2.199466 z m 13.921935,-0.05515 c 0,-2.114973 -1.873576,-2.534196 -3.107575,-0.695339 -0.341832,0.509388 -0.927604,0.387776 -1.301721,-0.270248 -0.374109,-0.658025 -0.2063,-1.196408 0.372908,-1.196408 0.579217,0 1.053118,-0.789236 1.053118,-1.753857 0,-1.436419 0.269978,-1.510289 1.491635,-0.408138 1.221656,1.102155 1.491635,1.028284 1.491635,-0.408135 0,-1.160905 -0.860345,-1.753858 -2.544752,-1.753858 -1.551546,0 -2.28852,-0.45067 -1.888261,-1.154693 0.361072,-0.635081 1.305702,-0.883877 2.099186,-0.552881 0.793483,0.330998 1.23497,0.236445 0.981086,-0.210119 -0.253891,-0.446561 0.154504,-2.021947 0.907534,-3.500859 1.259238,-2.473062 1.371984,-2.016371 1.404389,5.6888 0.01939,4.607751 -0.188506,8.377729 -0.461974,8.377729 -0.273462,0 -0.497208,-0.972898 -0.497208,-2.161994 z M 11.292308,65.00391 c -0.901806,-1.181207 -0.842374,-1.744469 0.264394,-2.505772 2.103204,-1.446716 2.931631,-1.226843 2.284512,0.606333 -0.314816,0.891823 -0.07703,1.621495 0.528423,1.621495 0.605448,0 1.100815,0.405375 1.100815,0.900831 0,1.463307 -2.917482,1.028363 -4.178144,-0.622887 z m 5.39608,-0.87779 c -0.121856,-1.600534 0.205083,-2.482792 0.777532,-2.098198 1.164481,0.782344 1.340904,4.86004 0.210271,4.86004 -0.427642,0 -0.872154,-1.24283 -0.987803,-2.761842 z m 15.083664,1.051933 c 0.331981,-0.940449 0.603604,-1.972909 0.603604,-2.294355 0,-0.321448 0.692417,0.04023 1.538705,0.803738 1.229005,1.108782 1.279043,1.567243 0.248606,2.277803 -2.03773,1.40516 -3.047467,1.072715 -2.390915,-0.787186 z m 49.70825,0.140178 c -0.63409,-1.796267 0.272172,-3.835255 1.704641,-3.835255 0.622893,0 0.614398,0.723759 -0.02371,2.019862 -0.546932,1.110923 -0.711838,2.327046 -0.366466,2.702492 0.345381,0.375447 0.315592,0.682632 -0.06622,0.682632 -0.381792,0 -0.94352,-0.70638 -1.248284,-1.569731 z M 78.61636,64.725966 c 0.338022,-0.594547 0.811923,-1.080996 1.053111,-1.080996 0.241189,0 0.438524,0.486449 0.438524,1.080996 0,0.594549 -0.473901,1.080998 -1.053112,1.080998 -0.579211,0 -0.776546,-0.486449 -0.438523,-1.080998 z M 75.425569,52.765784 c -0.06083,-4.291236 0.313568,-7.497762 0.875448,-7.497762 0.574657,0 0.708551,1.352055 0.322912,3.260726 -0.644434,3.189526 -0.602144,3.232654 1.936811,1.975117 1.911566,-0.946793 2.888342,-0.967407 3.706326,-0.07821 0.817975,0.889191 0.483275,1.031482 -1.270006,0.539915 -2.12446,-0.595637 -2.234783,-0.474057 -1.024996,1.129576 0.745638,0.98838 1.752494,1.530477 2.237454,1.20466 0.484961,-0.325816 0.937761,0.04438 1.006219,0.82265 0.06848,0.778275 0.454329,-0.773975 0.857506,-3.449443 0.804819,-5.340849 -0.591487,-7.736539 -2.711944,-4.652982 -0.678016,0.985963 -1.424537,1.584184 -1.658936,1.329377 -0.234399,-0.254805 0.220505,-1.424674 1.010899,-2.599707 2.44821,-3.639611 4.879816,-0.835285 4.788072,5.522001 -0.0754,5.224943 -0.06609,5.240637 1.198178,2.022806 0.700792,-1.783644 1.294351,-2.657819 1.319016,-1.942608 0.07902,2.290686 -2.265764,6.909224 -2.921853,5.755227 -0.387019,-0.680721 -1.503456,-0.231578 -2.873621,1.156057 -2.159782,2.187319 -2.311815,2.199325 -4.209525,0.332405 -1.625473,-1.599098 -1.862824,-1.636608 -1.361019,-0.215079 0.33429,0.946987 0.218897,1.983073 -0.256428,2.302416 -0.475326,0.319342 -0.912056,-2.793371 -0.970513,-6.917139 z m 6.67127,2.52428 c -0.820399,-0.339486 -1.820399,-1.152367 -2.222223,-1.806403 -0.450641,-0.733493 -0.736425,-0.464273 -0.745818,0.702587 -0.01031,1.270952 0.719014,1.863738 2.222224,1.806404 1.49506,-0.05704 1.742529,-0.290147 0.745817,-0.702588 z m 6.506873,-12.844599 c 0.176959,-2.853345 -0.03333,-4.555124 -0.468403,-3.789938 -0.61354,1.079153 -0.924322,1.007062 -1.393963,-0.323348 -0.332412,-0.941673 -0.223135,-1.712134 0.242845,-1.712134 0.46598,0 1.20613,-1.094509 1.644783,-2.432244 0.588748,-1.79546 0.892883,-0.621398 1.161684,4.484442 0.200275,3.804175 -0.05712,7.374617 -0.571989,7.934315 -0.585229,0.636175 -0.815745,-0.923595 -0.614957,-4.161093 z M 77.37333,43.344132 c -2.330499,-0.404628 -3.168188,-2.412493 -0.994425,-2.383545 1.498415,0.01995 4.360003,1.875936 3.700292,2.399952 -0.257629,0.204635 -1.475269,0.197252 -2.705867,-0.0164 z m 9.342456,-0.760379 c -0.36032,-1.020715 -1.211961,-1.339959 -2.343845,-0.8786 -1.593311,0.649437 -1.628462,0.525187 -0.338571,-1.196836 1.37913,-1.841151 1.493485,-1.840976 2.734669,0.0042 1.256426,1.867863 1.701157,3.674493 0.904527,3.674493 -0.214952,0 -0.645504,-0.721472 -0.95678,-1.603272 z M 75.508188,37.105038 c -1.251682,-2.076617 -1.380185,-3.064765 -0.520137,-3.999688 1.109912,-1.206539 1.676846,0.112323 1.219344,2.836566 -0.08714,0.518852 0.571492,0.638885 1.463613,0.266743 0.892121,-0.372144 2.141021,-0.323888 2.775331,0.107232 2.422631,1.646591 3.653432,1.271627 2.632542,-0.802001 -0.778866,-1.582025 -0.568672,-2.133764 1.022001,-2.682574 1.101394,-0.380003 1.741372,-1.150276 1.42217,-1.711717 -0.319203,-0.561441 -1.108806,-0.662103 -1.754678,-0.223694 -1.899791,1.289546 -4.654804,1.474428 -4.654804,0.312374 0,-0.590818 0.335619,-1.01661 0.745819,-0.946203 1.954846,0.335532 3.291149,-0.230212 2.758151,-1.167705 -0.357845,-0.629407 -1.492911,-0.666974 -2.876364,-0.09519 -1.256892,0.519472 -2.852603,0.56333 -3.546025,0.09746 -1.611355,-1.082572 3.77175,-2.01229 7.86759,-1.358813 3.204757,0.511307 3.745521,3.78403 0.943736,5.711578 -1.133576,0.779869 -1.039813,0.978865 0.467448,0.992098 1.641978,0.01442 1.539054,0.365536 -0.797048,2.719046 -3.489263,3.515267 -7.029323,3.493836 -9.168689,-0.05551 z m 8.391047,-13.114404 c 0.717849,-0.312268 1.575541,-0.273864 1.905982,0.08534 0.330435,0.359206 -0.256896,0.614699 -1.305181,0.56776 -1.158449,-0.05187 -1.394083,-0.308019 -0.600801,-0.653102 z m -46.55146,-0.767397 c 0,-0.233665 0.694476,-0.714541 1.543284,-1.068616 0.884963,-0.369155 1.28412,-0.187929 0.935735,0.424845 -0.583984,1.027168 -2.479019,1.519284 -2.479019,0.643771 z m 7.95539,-3.234569 c 0,-0.893757 1.154827,-2.989872 2.566284,-4.658033 1.411455,-1.668163 2.211051,-2.303643 1.776881,-1.412177 -0.43417,0.891466 -0.67466,3.080484 -0.534418,4.864486 0.1893,2.408085 0.0046,2.839243 -0.716844,1.673759 -0.534504,-0.863436 -0.708466,-2.033106 -0.386583,-2.599268 0.321885,-0.566161 0.06131,-0.677387 -0.579047,-0.247167 -0.640362,0.430219 -0.925949,1.201442 -0.634638,1.713824 0.291309,0.512385 0.07487,1.237153 -0.480991,1.610598 -0.555855,0.373445 -1.010644,-0.05226 -1.010644,-0.946022 z M 78.7637,18.811184 c -0.320172,-0.906997 -0.100175,-1.649085 0.488884,-1.649085 0.669163,0 0.817608,-1.115397 0.395634,-2.972742 -0.487453,-2.145553 -0.37262,-2.649864 0.412688,-1.812389 1.704477,1.817708 2.028864,5.607784 0.590986,6.905006 -0.972021,0.876937 -1.454943,0.756528 -1.888192,-0.47079 z M 50.965237,18.62841 c 0.65294,-0.288747 0.922697,-1.344852 0.599459,-2.3469 -0.45859,-1.42164 -0.312421,-1.545734 0.665314,-0.564847 1.390899,1.395378 0.577642,3.655053 -1.267597,3.522088 -0.913062,-0.06579 -0.912415,-0.205596 0.0028,-0.610341 z m 1.298893,-7.411795 c -0.713547,-0.934623 -0.810194,-1.6214956 -0.228153,-1.6214956 0.555385,0 1.26737,0.7296726 1.582186,1.6214956 0.314818,0.891823 0.417486,1.621495 0.228155,1.621495 -0.189332,0 -0.901315,-0.729672 -1.582188,-1.621495 z m 2.983271,-0.540499 c -0.896266,-0.629637 -1.018918,-1.054498 -0.307293,-1.0644437 0.651389,-0.00906 1.460906,0.4698967 1.798928,1.0644437 0.763027,1.342085 0.418776,1.342085 -1.491635,0 z M 21.946564,136.32548 c 1.261281,-0.99496 1.584892,-6.73969 0.379656,-6.73969 -0.837449,0 -1.289383,2.27772 -0.992,4.99961 0.165741,1.51701 -4.926555,1.63561 -6.609586,0.15396 -1.292832,-1.13815 -1.806189,0.35989 -0.58008,1.69275 0.889219,0.96663 6.539347,0.88941 7.80201,-0.1066 z m 6.091787,-0.7942 c -0.614202,-1.73993 1.830572,-2.32595 2.77481,-0.66514 0.934132,1.64304 6.412241,2.0305 6.955357,0.49196 0.298381,-0.84526 -0.183205,-1.34764 -1.204876,-1.25691 -3.196802,0.2839 -5.18241,-0.1906 -5.18241,-1.23848 0,-0.57589 0.599542,-0.79697 1.332315,-0.49131 0.732773,0.30567 1.844395,-0.11496 2.470272,-0.93475 0.877484,-1.14936 0.810154,-1.49051 -0.294149,-1.49051 -0.787657,0 -1.201633,0.40536 -0.919947,0.90082 0.715911,1.25922 -0.950605,1.12682 -2.38132,-0.18917 -0.651762,-0.59951 -0.933625,-0.72754 -0.626362,-0.28454 0.307262,0.44302 -1.150812,1.62712 -3.240165,2.63133 -2.089352,1.00423 -3.015715,1.86193 -2.058579,1.90603 0.957131,0.0442 1.74024,0.56662 1.74024,1.16116 0,0.59455 0.271621,1.08101 0.603604,1.08101 0.331983,0 0.346027,-0.72967 0.03121,-1.6215 z m 17.927763,0 c 0,-0.89182 -0.447491,-1.62149 -0.994425,-1.62149 -0.546932,0 -0.66549,-0.35758 -0.263462,-0.7946 0.402027,-0.43704 1.503842,0.31923 2.448473,1.68058 l 1.717517,2.4752 1.917177,-2.49134 c 1.054447,-1.37024 1.283321,-1.88668 0.508609,-1.14766 -1.136992,1.08462 -1.802952,0.96782 -3.454097,-0.60579 -1.942302,-1.85109 -2.21125,-1.8562 -5.329382,-0.1013 l -3.283854,1.84812 2.786642,1.10456 c 3.809525,1.51002 3.946802,1.49798 3.946802,-0.34624 z m 24.457527,-1.07677 c 1.344179,-0.60278 1.608521,-0.38036 1.136638,0.95641 -0.338185,0.95802 -0.119514,1.74186 0.485933,1.74186 0.60545,0 1.100816,-0.50487 1.100816,-1.12191 0,-0.61705 1.230599,-0.9819 2.734666,-0.81076 3.074775,0.34987 4.158587,-4.40186 1.243029,-5.44977 -1.275107,-0.45831 -1.294939,-0.2771 -0.13661,1.24836 1.752725,2.30825 -0.355574,3.42327 -3.830559,2.02588 -1.577217,-0.63424 -3.254326,-0.45052 -5.119203,0.56079 -2.084151,1.13023 -3.276943,1.21118 -4.798961,0.32571 -2.164399,-1.2592 -2.341189,-1.09257 -1.467301,1.38301 0.553974,1.5693 3.998312,1.2271 8.651552,-0.85958 z m 16.596081,0.34469 c 1.109396,-1.29446 1.78777,-2.60284 1.507498,-2.90751 -0.280269,-0.30468 -1.176349,0.48085 -1.99128,1.74562 -0.835353,1.29648 -2.885846,2.48931 -4.700636,2.73452 l -3.218944,0.43495 3.193138,0.173 c 2.145972,0.11626 3.854626,-0.59885 5.210224,-2.18058 z m -18.554583,-3.39537 c 0.344289,-0.97531 -0.397676,-1.42494 -2.351375,-1.42494 -2.249501,0 -2.623847,0.30197 -1.766495,1.42494 0.598342,0.78372 1.656461,1.42495 2.351374,1.42495 0.694916,0 1.489838,-0.64123 1.766496,-1.42495 z m -33.547783,-4.22717 c -1.13398,-0.68985 -2.077513,-0.68985 -2.712121,0 -0.634607,0.68986 -0.02962,1.05789 1.738954,1.05789 2.290263,0 2.441635,-0.16455 0.973167,-1.05789 z m 32.815984,0 c -1.133981,-0.68985 -2.077514,-0.68985 -2.712122,0 -0.634607,0.68986 -0.02962,1.05789 1.738956,1.05789 2.290262,0 2.441633,-0.16455 0.973166,-1.05789 z M 14.797571,124.3555 c -1.851595,-0.46024 -2.706848,0.41542 -1.860185,1.90463 0.44251,0.77832 1.076595,0.71515 1.990587,-0.19834 1.121233,-1.12061 1.099844,-1.40048 -0.130402,-1.70629 z m 73.265812,1.44681 c 0,-1.01565 -0.943534,-1.6215 -2.525265,-1.6215 -2.137238,0 -2.328243,0.24284 -1.243033,1.58037 1.679075,2.06949 3.768298,2.09229 3.768298,0.0412 z M 13.541231,113.27014 c -2.069965,-0.88012 -4.864263,2.12003 -3.086796,3.31419 0.754057,0.50662 1.950198,0.13609 2.933957,-0.90884 1.454474,-1.54491 1.473468,-1.84384 0.152839,-2.40535 z m -1.05405,-4.22329 c 0,-0.59455 -0.783108,-1.07355 -1.74024,-1.06445 -1.487208,0.0142 -1.523355,0.16892 -0.248607,1.06445 1.876689,1.3184 1.988847,1.3184 1.988847,0 z m 0,-66.545117 c 0,-0.926911 -0.45479,-1.379746 -1.010643,-1.006303 -0.555855,0.373446 -0.753191,1.131827 -0.438525,1.685293 0.852459,1.49939 1.449168,1.21981 1.449168,-0.67899 z m 0,-3.719693 c 0,-0.594547 -0.4739,-1.080997 -1.05311,-1.080997 -0.579212,0 -0.776548,0.48645 -0.438525,1.080997 0.338023,0.594549 0.811923,1.080998 1.053111,1.080998 0.241188,0 0.438524,-0.486449 0.438524,-1.080998 z M 30.975632,21.896305 c -0.46738,-1.324007 -0.155996,-1.620331 1.275163,-1.213492 1.041451,0.296056 2.446928,0.166499 3.123286,-0.287904 0.680938,-0.457483 -0.601287,-0.789415 -2.873191,-0.74379 -4.323556,0.08683 -4.857522,0.582281 -2.909621,2.699766 1.639465,1.782194 2.118433,1.624915 1.384363,-0.45458 z m 5.077987,-5.171182 c -0.189713,-0.618687 -1.430482,-1.454651 -2.757266,-1.857697 -2.588175,-0.786227 -0.59217,-1.482489 3.267289,-1.13972 1.117851,0.09927 1.508862,-0.395775 1.139353,-1.442526 -0.577595,-1.636228 -3.878573,-1.313101 -7.564793,0.740501 -1.290973,0.719205 -1.740242,0.538698 -1.740242,-0.699196 0,-1.379496 -0.33353,-1.442261 -1.924523,-0.362169 -2.43848,1.655433 -1.905804,2.581379 1.969737,3.423967 1.688429,0.367085 2.840342,1.071143 2.559807,1.564576 -0.280534,0.493431 0.818705,0.897147 2.442753,0.897147 1.624049,0 2.797599,-0.506199 2.607885,-1.124883 z M 89.05781,15.965447 c 0,-1.54488 -0.463599,-2.084261 -1.440995,-1.676548 -0.963118,0.401759 -1.257611,0.08163 -0.888029,-0.965342 0.304129,-0.861544 0.05757,-1.566443 -0.547856,-1.566443 -1.644065,0 -1.329009,3.215655 0.385112,3.930688 0.817252,0.340913 1.238332,1.055321 0.935732,1.587569 -0.3026,0.532248 -0.07628,0.967724 0.50292,0.967724 0.579216,0 1.053116,-1.024942 1.053116,-2.277648 z M 13.481604,15.604401 c 0,-0.262187 -0.44749,-0.777345 -0.994423,-1.144794 -0.546933,-0.367452 -0.994424,-0.152936 -0.994424,0.4767 0,0.629637 0.447491,1.144795 0.994424,1.144795 0.546933,0 0.994423,-0.214515 0.994423,-0.476701 z"
       id="path17" />
  </g>
</svg>
